<?xml version="1.0" encoding="utf-8"?>
<!-- Generator: Adobe Illustrator 16.0.0, SVG Export Plug-In . SVG Version: 6.00 Build 0)  -->
<!DOCTYPE svg PUBLIC "-//W3C//DTD SVG 1.1//EN" "http://www.w3.org/Graphics/SVG/1.1/DTD/svg11.dtd">
<svg version="1.1" id="Layer_1" xmlns="http://www.w3.org/2000/svg" xmlns:xlink="http://www.w3.org/1999/xlink" x="0px" y="0px"
	 width="98.125px" height="15.811px" viewBox="1 0 98.125 15.811" enable-background="new 1 0 98.125 15.811" xml:space="preserve">
<path id="Shape" fill="#008D1D" d="M27.538,7.248V5.823c0-0.193-0.157-0.352-0.35-0.352h-6.145c-0.192,0-0.348,0.159-0.348,0.352
	v1.805C20.808,7.609,20.923,7.6,21.043,7.6l6.145,0.003C27.382,7.6,27.538,7.444,27.538,7.248L27.538,7.248z M80.338,7.248V5.823
	c0-0.193-0.155-0.352-0.346-0.352h-6.149c-0.192,0-0.348,0.159-0.348,0.352v1.805C73.607,7.609,73.725,7.6,73.843,7.6l6.149,0.003
	C80.183,7.6,80.338,7.444,80.338,7.248L80.338,7.248z M14.745,5.465H8.538c-0.19,0-0.348,0.158-0.348,0.351v1.798
	c0.116-0.018,0.23-0.028,0.348-0.028h6.207c0.192,0,0.345-0.158,0.348-0.352V5.816C15.089,5.623,14.937,5.465,14.745,5.465
	L14.745,5.465z M97.656,0H2.469C1.658,0,1,0.667,1,1.492v12.827c0,0.826,0.658,1.492,1.469,1.492h95.187
	c0.812,0,1.469-0.666,1.469-1.492V1.492C99.125,0.667,98.469,0,97.656,0L97.656,0z M16.833,7.235
	c-0.001,1.219-0.972,2.21-2.177,2.21H8.538c-0.192,0-0.348,0.156-0.348,0.35v2.412H6.362v-0.74H6.361V5.816
	c0.001-1.22,0.974-2.212,2.177-2.212h6.119c1.205,0,2.176,0.99,2.178,2.212L16.833,7.235L16.833,7.235z M27.084,12.209l-2.697-2.738
	l-3.345-0.002c-0.188,0.002-0.339,0.147-0.348,0.336v2.403h-1.838V5.825c0.002-1.229,0.979-2.221,2.187-2.223h6.147
	c1.208,0.002,2.185,0.995,2.185,2.223v1.423c0,1.229-0.979,2.221-2.185,2.223h-0.205l2.713,2.738H27.084L27.084,12.209z
	 M40.963,5.396H33.75c-0.23,0-0.351,0.142-0.351,0.31v1.146l7.565,0.007v1.806l-7.565,0.008v1.373c0,0.189,0.181,0.303,0.346,0.303
	h7.219v1.85h-7.25c-1.496,0-2.313-1.092-2.313-2.167V5.848c0-0.929,0.722-2.232,2.173-2.232h7.39V5.396L40.963,5.396z
	 M54.042,12.213H52.13V6.091l-2.723,5.089h-1.651l-2.858-5.113v6.146h-1.914V3.609h2.343l3.187,5.649l3.248-5.656h2.279V12.213
	L54.042,12.213z M58.051,12.234h-1.984V3.577h1.984V12.234L58.051,12.234z M69.635,5.396h-7.211c-0.23,0-0.352,0.142-0.352,0.31
	v1.146l7.562,0.007v1.806l-7.562,0.008v1.373c0,0.189,0.18,0.303,0.345,0.303h7.218v1.85h-7.247c-1.497,0-2.315-1.092-2.315-2.167
	V5.848c0-0.929,0.723-2.232,2.176-2.232h7.387V5.396L69.635,5.396z M79.887,12.209L77.19,9.471l-3.346-0.002
	c-0.188,0.002-0.343,0.147-0.35,0.336v2.403h-1.837V5.825c0.003-1.229,0.977-2.221,2.187-2.223h6.147
	c1.207,0.002,2.184,0.995,2.186,2.223v1.423c-0.002,1.229-0.98,2.221-2.188,2.223h-0.203l2.711,2.738H79.887L79.887,12.209z
	 M93.764,5.396h-7.213c-0.23,0-0.354,0.142-0.354,0.31v1.146l7.566,0.007v1.806l-7.566,0.008v1.373c0,0.189,0.184,0.303,0.348,0.303
	h7.219v1.85h-7.248c-1.496,0-2.314-1.092-2.314-2.167V5.848c0-0.929,0.723-2.232,2.174-2.232h7.389V5.396L93.764,5.396z"/>
</svg>
